<mxfile host="app.diagrams.net" agent="Mozilla/5.0 (Windows NT 10.0; Win64; x64) AppleWebKit/537.36 (KHTML, like Gecko) Chrome/130.0.0.0 Safari/537.36" version="24.8.4">
  <diagram id="C5RBs43oDa-KdzZeNtuy" name="Page-1">
    <mxGraphModel dx="954" dy="502" grid="1" gridSize="10" guides="1" tooltips="1" connect="1" arrows="1" fold="1" page="1" pageScale="1" pageWidth="827" pageHeight="1169" math="0" shadow="0">
      <root>
        <mxCell id="WIyWlLk6GJQsqaUBKTNV-0" />
        <mxCell id="WIyWlLk6GJQsqaUBKTNV-1" parent="WIyWlLk6GJQsqaUBKTNV-0" />
        <mxCell id="6MhPXlTzhb8UE-n33zZw-3" value="" style="edgeStyle=orthogonalEdgeStyle;rounded=0;orthogonalLoop=1;jettySize=auto;html=1;" edge="1" parent="WIyWlLk6GJQsqaUBKTNV-1" source="6MhPXlTzhb8UE-n33zZw-0" target="6MhPXlTzhb8UE-n33zZw-1">
          <mxGeometry relative="1" as="geometry" />
        </mxCell>
        <mxCell id="6MhPXlTzhb8UE-n33zZw-0" value="&lt;font style=&quot;font-size: 22px;&quot;&gt;شروع&lt;/font&gt;" style="ellipse;whiteSpace=wrap;html=1;" vertex="1" parent="WIyWlLk6GJQsqaUBKTNV-1">
          <mxGeometry x="340" y="60" width="120" height="80" as="geometry" />
        </mxCell>
        <mxCell id="6MhPXlTzhb8UE-n33zZw-8" value="" style="edgeStyle=orthogonalEdgeStyle;rounded=0;orthogonalLoop=1;jettySize=auto;html=1;" edge="1" parent="WIyWlLk6GJQsqaUBKTNV-1" source="6MhPXlTzhb8UE-n33zZw-1" target="6MhPXlTzhb8UE-n33zZw-7">
          <mxGeometry relative="1" as="geometry" />
        </mxCell>
        <mxCell id="6MhPXlTzhb8UE-n33zZw-1" value="را بخوان numFirst و numSecond" style="shape=parallelogram;perimeter=parallelogramPerimeter;whiteSpace=wrap;html=1;fixedSize=1;" vertex="1" parent="WIyWlLk6GJQsqaUBKTNV-1">
          <mxGeometry x="300" y="170" width="200" height="100" as="geometry" />
        </mxCell>
        <mxCell id="6MhPXlTzhb8UE-n33zZw-10" value="" style="edgeStyle=orthogonalEdgeStyle;rounded=0;orthogonalLoop=1;jettySize=auto;html=1;" edge="1" parent="WIyWlLk6GJQsqaUBKTNV-1" source="6MhPXlTzhb8UE-n33zZw-7" target="6MhPXlTzhb8UE-n33zZw-9">
          <mxGeometry relative="1" as="geometry" />
        </mxCell>
        <mxCell id="6MhPXlTzhb8UE-n33zZw-7" value="numFirst + numSecond" style="rounded=0;whiteSpace=wrap;html=1;" vertex="1" parent="WIyWlLk6GJQsqaUBKTNV-1">
          <mxGeometry x="310" y="320" width="180" height="90" as="geometry" />
        </mxCell>
        <mxCell id="6MhPXlTzhb8UE-n33zZw-12" value="" style="edgeStyle=orthogonalEdgeStyle;rounded=0;orthogonalLoop=1;jettySize=auto;html=1;" edge="1" parent="WIyWlLk6GJQsqaUBKTNV-1" source="6MhPXlTzhb8UE-n33zZw-9" target="6MhPXlTzhb8UE-n33zZw-11">
          <mxGeometry relative="1" as="geometry" />
        </mxCell>
        <mxCell id="6MhPXlTzhb8UE-n33zZw-9" value="را بخوان numFirst + numSecond" style="shape=parallelogram;perimeter=parallelogramPerimeter;whiteSpace=wrap;html=1;fixedSize=1;" vertex="1" parent="WIyWlLk6GJQsqaUBKTNV-1">
          <mxGeometry x="300" y="440" width="200" height="100" as="geometry" />
        </mxCell>
        <mxCell id="6MhPXlTzhb8UE-n33zZw-11" value="&lt;font style=&quot;font-size: 20px;&quot;&gt;پایان&lt;/font&gt;" style="ellipse;whiteSpace=wrap;html=1;" vertex="1" parent="WIyWlLk6GJQsqaUBKTNV-1">
          <mxGeometry x="325" y="580" width="150" height="100" as="geometry" />
        </mxCell>
      </root>
    </mxGraphModel>
  </diagram>
</mxfile>
